<svg width="70" height="31" viewBox="0 0 70 31" fill="none" xmlns="http://www.w3.org/2000/svg">
<path d="M6.44011 6.43601V16.5096L8.40005 18.4683H22.1199V24.9043H4.63689L0 20.2703V0H22.1199V6.43601H6.44011Z" fill="#CEC7CC"/>
<path d="M62.1599 18.4683V24.9043H46.4801V0H52.9202V18.4683H62.1599Z" fill="#CEC7CC"/>
<path d="M70 24.9043V0L63.5599 0V24.9043H70Z" fill="#CEC7CC"/>
<path d="M23.5202 4.47701V24.904H29.96V18.468H38.64V24.904H45.0802V0.000640869H28.0001L23.5202 4.47701ZM29.96 6.43569H38.64V12.0335H29.96V6.43569Z" fill="#CEC7CC"/>
<path d="M25.0899 29.3297V29.6776H23.561V27.7081H25.053V28.0583H23.9951V28.5094H24.9339V28.8468H23.9932V29.3288L25.0899 29.3297Z" fill="#CEC7CC"/>
<path d="M27.3547 27.7081V29.6776H26.9964L25.9729 28.4381V29.6776H25.5391V27.7081H25.9009L26.9244 28.9496V27.7081H27.3547Z" fill="#CEC7CC"/>
<path d="M29.2659 28.6756H29.6762V29.4609C29.5677 29.5427 29.4458 29.605 29.3159 29.6449C29.1785 29.6895 29.0349 29.7122 28.8904 29.7121C28.6934 29.7154 28.4987 29.6699 28.3237 29.5796C28.1623 29.496 28.027 29.3697 27.9325 29.2145C27.8377 29.0571 27.7888 28.8764 27.7914 28.6928C27.7889 28.5091 27.8377 28.3284 27.9325 28.171C28.0264 28.0165 28.1611 27.8908 28.3218 27.8078C28.4943 27.7189 28.6861 27.674 28.8802 27.677C29.2478 27.677 29.5238 27.7872 29.7084 28.0077L29.4258 28.2796C29.3589 28.2035 29.276 28.1431 29.1831 28.1026C29.0902 28.0622 28.9895 28.0427 28.8881 28.0456C28.7699 28.0436 28.6531 28.072 28.5489 28.128C28.4506 28.1815 28.3694 28.2615 28.3145 28.3588C28.2575 28.4608 28.2283 28.576 28.23 28.6928C28.2285 28.8104 28.2583 28.9263 28.3164 29.0286C28.3721 29.1269 28.4545 29.2074 28.554 29.261C28.6612 29.3176 28.781 29.3461 28.9022 29.3437C29.0286 29.3452 29.1537 29.3168 29.2672 29.261L29.2659 28.6756Z" fill="#CEC7CC"/>
<path d="M31.7435 29.3297V29.6776H30.2145V27.7081H31.7065V28.0583H30.6487V28.5094H31.5893V28.8468H30.6487V29.3288L31.7435 29.3297Z" fill="#CEC7CC"/>
<path d="M34.0073 27.7081V29.6776H33.6489L32.6255 28.4381V29.6776H32.1913V27.7081H32.5532L33.5766 28.9496V27.7081H34.0073Z" fill="#CEC7CC"/>
<path d="M34.6068 27.7081H35.0409V28.5001H35.9886V27.7081H36.4227V29.6776H35.9886V28.8583H35.0409V29.6776H34.6068V27.7081Z" fill="#CEC7CC"/>
<path d="M38.3123 29.2508H37.3165L37.1305 29.6776H36.7069L37.6026 27.7081H38.0332L38.9251 29.6776H38.4945L38.3123 29.2508ZM38.1712 28.92L37.8163 28.1006L37.4615 28.92H38.1712Z" fill="#CEC7CC"/>
<path d="M40.4885 29.6776L40.0922 29.1199H39.6409V29.6776H39.2067V27.7081H40.0578C40.3241 27.7081 40.5343 27.7706 40.6882 27.8956C40.8422 28.0206 40.9192 28.1945 40.9192 28.4174C40.9229 28.5525 40.8857 28.6857 40.8124 28.7994C40.7371 28.9095 40.6302 28.9942 40.5057 29.0423L40.9571 29.6789L40.4885 29.6776ZM40.3662 28.1497C40.2891 28.0888 40.1759 28.0583 40.0266 28.0583H39.6409V28.7777H40.0266C40.1753 28.7777 40.2885 28.7467 40.3662 28.6848C40.4439 28.6228 40.4823 28.5332 40.4815 28.4161C40.4815 28.2998 40.4431 28.2113 40.3662 28.1506V28.1497Z" fill="#CEC7CC"/>
<path d="M41.4021 27.7081H41.8362V29.6776H41.4021V27.7081Z" fill="#CEC7CC"/>
<path d="M43.7238 29.2508H42.7281L42.5421 29.6776H42.1181L43.0142 27.7081H43.4448L44.3367 29.6776H43.9057L43.7238 29.2508ZM43.5824 28.92L43.2276 28.1006L42.8727 28.92H43.5824Z" fill="#CEC7CC"/>
<path d="M47.0455 29.712L46.8009 29.4892C46.6169 29.6381 46.3861 29.717 46.1495 29.712C46.0162 29.7137 45.884 29.6891 45.7602 29.6397C45.6524 29.5985 45.5572 29.5297 45.4844 29.4402C45.4188 29.358 45.3836 29.2558 45.3847 29.1508C45.3838 29.0389 45.4201 28.9298 45.4879 28.8407C45.5571 28.7491 45.6674 28.6618 45.8188 28.5791C45.7568 28.5184 45.705 28.4481 45.6653 28.3709C45.6347 28.3069 45.6188 28.2368 45.6188 28.1659C45.6167 28.0988 45.6304 28.0321 45.6588 27.9713C45.6873 27.9104 45.7297 27.8571 45.7825 27.8157C45.8915 27.7275 46.0374 27.6833 46.2183 27.6833C46.386 27.6833 46.521 27.7234 46.6231 27.8036C46.673 27.842 46.7129 27.8917 46.7396 27.9486C46.7663 28.0055 46.779 28.068 46.7767 28.1309C46.7779 28.2303 46.7457 28.3273 46.6853 28.4062C46.6245 28.4869 46.5263 28.5638 46.3906 28.637L46.7802 28.9951C46.8318 28.8947 46.8711 28.7883 46.8971 28.6784L47.228 28.7739C47.1903 28.9354 47.125 29.0891 47.035 29.2285L47.273 29.4452L47.0455 29.712ZM46.5563 29.2609L46.053 28.7997C45.9747 28.8389 45.9041 28.892 45.8446 28.9563C45.8048 29.004 45.7833 29.0644 45.7841 29.1266C45.7844 29.1644 45.7941 29.2016 45.8125 29.2347C45.8309 29.2678 45.8572 29.2957 45.8892 29.316C45.9593 29.3667 46.0541 29.392 46.1737 29.3918C46.3124 29.393 46.4474 29.3468 46.5563 29.2609ZM46.053 28.0264C46.033 28.0423 46.0169 28.0625 46.0058 28.0855C45.9948 28.1085 45.9891 28.1337 45.9893 28.1592C45.989 28.1998 46 28.2397 46.0211 28.2744C46.0593 28.3285 46.1039 28.3776 46.1539 28.4209C46.232 28.3835 46.3045 28.3354 46.3693 28.2779C46.3883 28.2612 46.4037 28.2408 46.4146 28.218C46.4256 28.1952 46.4318 28.1704 46.433 28.1452C46.4337 28.1219 46.4292 28.0987 46.42 28.0773C46.4107 28.0559 46.3969 28.0368 46.3795 28.0214C46.3351 27.9862 46.2792 27.969 46.2227 27.973C46.1614 27.9697 46.101 27.9887 46.0526 28.0264H46.053Z" fill="#CEC7CC"/>
<path d="M48.9249 29.5796C48.7649 29.4953 48.6309 29.369 48.5372 29.2145C48.4424 29.0571 48.3935 28.8764 48.3961 28.6927C48.3934 28.5097 48.4423 28.3295 48.5372 28.1729C48.6313 28.0191 48.7652 27.8936 48.9249 27.8097C49.0951 27.7197 49.2853 27.6741 49.4778 27.6769C49.8363 27.6769 50.1074 27.7884 50.2911 28.0112L50.0085 28.2796C49.9449 28.2052 49.8658 28.1458 49.7767 28.1053C49.6876 28.0649 49.5907 28.0445 49.4928 28.0456C49.3744 28.0436 49.2575 28.0719 49.1532 28.128C49.055 28.1815 48.9738 28.2614 48.9188 28.3588C48.8618 28.4608 48.8327 28.576 48.8344 28.6927C48.8324 28.8107 48.8615 28.9271 48.9188 29.0302C48.9737 29.1276 49.0549 29.2076 49.1532 29.261C49.2575 29.3171 49.3744 29.3457 49.4928 29.3437C49.5913 29.3454 49.6888 29.3249 49.7783 29.2837C49.8677 29.2425 49.9467 29.1818 50.0095 29.1059L50.292 29.3781C50.1039 29.6009 49.8328 29.7123 49.4788 29.712C49.286 29.715 49.0955 29.6695 48.9249 29.5796Z" fill="#CEC7CC"/>
<path d="M51.0007 29.5796C50.8402 29.4956 50.7056 29.3693 50.6115 29.2145C50.5167 29.0572 50.4678 28.8764 50.4704 28.6928C50.4678 28.5091 50.5167 28.3284 50.6115 28.171C50.7054 28.0165 50.8401 27.8908 51.0007 27.8078C51.1721 27.7192 51.3627 27.6742 51.5556 27.677C51.7496 27.6739 51.9413 27.7189 52.1137 27.8078C52.2745 27.8907 52.4093 28.0164 52.5033 28.171C52.598 28.3284 52.6468 28.5091 52.6444 28.6928C52.6468 28.8764 52.598 29.0571 52.5033 29.2145C52.4091 29.3694 52.2744 29.4957 52.1137 29.5796C51.9416 29.6695 51.7498 29.715 51.5556 29.7121C51.3625 29.7147 51.1718 29.6692 51.0007 29.5796ZM51.8898 29.2594C51.9868 29.2048 52.0668 29.1244 52.1207 29.027C52.1768 28.9246 52.2053 28.8095 52.2035 28.6928C52.2053 28.5762 52.1768 28.4611 52.1207 28.3588C52.0671 28.2616 51.987 28.1816 51.8898 28.128C51.7874 28.0721 51.6723 28.0437 51.5556 28.0456C51.4399 28.044 51.3258 28.0731 51.225 28.1299C51.128 28.1843 51.0475 28.264 50.9921 28.3604C50.935 28.4618 50.9059 28.5765 50.9077 28.6928C50.906 28.8097 50.9351 28.9249 50.9921 29.027C51.0471 29.1243 51.1276 29.2046 51.225 29.2594C51.3258 29.3162 51.4399 29.3453 51.5556 29.3437C51.6725 29.3456 51.7878 29.3165 51.8898 29.2594Z" fill="#CEC7CC"/>
<path d="M54.8945 27.7081V29.6776H54.5361L53.5127 28.4381V29.6776H53.0785V27.7081H53.4404L54.4638 28.9496V27.7081H54.8945Z" fill="#CEC7CC"/>
<path d="M55.6526 29.6503C55.5251 29.619 55.4046 29.5641 55.2974 29.4882L55.4596 29.1508C55.5513 29.2174 55.6539 29.2675 55.7628 29.2988C55.881 29.3355 56.0041 29.354 56.1279 29.3539C56.2636 29.3539 56.3629 29.3338 56.426 29.2937C56.4547 29.2781 56.4787 29.2551 56.4955 29.2271C56.5123 29.1992 56.5213 29.1672 56.5216 29.1346C56.5222 29.0997 56.5121 29.0655 56.4927 29.0365C56.4733 29.0075 56.4454 28.9852 56.4129 28.9725C56.305 28.9278 56.1922 28.8957 56.0769 28.877C55.9503 28.85 55.8254 28.8155 55.7029 28.7736C55.6078 28.7392 55.523 28.6812 55.4567 28.6049C55.3879 28.527 55.3534 28.4214 55.3532 28.2881C55.3511 28.1731 55.3869 28.0606 55.4551 27.9679C55.53 27.8706 55.6309 27.7965 55.7463 27.7543C55.8887 27.7009 56.0401 27.6752 56.1922 27.6785C56.3186 27.6783 56.4447 27.6927 56.5678 27.7215C56.6785 27.746 56.7845 27.7884 56.8815 27.8472L56.7331 28.1847C56.5671 28.0809 56.3742 28.0282 56.1785 28.0331C56.0477 28.0331 55.95 28.0544 55.8855 28.0968C55.8562 28.1137 55.8319 28.138 55.8151 28.1673C55.7984 28.1966 55.7896 28.2298 55.7899 28.2636C55.7893 28.2981 55.7994 28.332 55.8188 28.3605C55.8383 28.389 55.8661 28.4108 55.8985 28.4228C56.0079 28.4673 56.1217 28.5002 56.2381 28.5208C56.3627 28.5479 56.4858 28.5819 56.6066 28.6227C56.7006 28.6556 56.7848 28.7118 56.8512 28.786C56.9203 28.8617 56.9548 28.9651 56.9548 29.096C56.9572 29.1838 56.9378 29.2707 56.8984 29.3492C56.859 29.4276 56.8008 29.4951 56.7289 29.5455C56.5786 29.6565 56.3724 29.7121 56.1103 29.7123C55.9557 29.7125 55.8017 29.6916 55.6526 29.6503Z" fill="#CEC7CC"/>
<path d="M57.6855 28.0628H57.0376V27.7081H58.7672V28.0628H58.1196V29.6776H57.6855V28.0628Z" fill="#CEC7CC"/>
<path d="M60.3628 29.6776L59.9665 29.1199H59.5152V29.6776H59.0807V27.7081H59.9315C60.1982 27.7081 60.4084 27.7706 60.5622 27.8956C60.7159 28.0206 60.7929 28.1945 60.7931 28.4174C60.7969 28.5526 60.7596 28.6858 60.6861 28.7994C60.611 28.9095 60.5041 28.9942 60.3797 29.0423L60.831 29.6789L60.3628 29.6776ZM60.2405 28.1497C60.1634 28.0888 60.0502 28.0583 59.9009 28.0583H59.5152V28.7777H59.9009C60.0495 28.7777 60.1627 28.7467 60.2405 28.6848C60.3182 28.6228 60.3566 28.5332 60.3558 28.4161C60.3551 28.2998 60.3167 28.2113 60.2405 28.1506V28.1497Z" fill="#CEC7CC"/>
<path d="M61.4929 29.4781C61.3343 29.3219 61.255 29.1072 61.255 28.8341V27.7081H61.6891V28.8201C61.6891 28.9898 61.7294 29.1196 61.8099 29.2094C61.8903 29.2992 62.0063 29.3439 62.1577 29.3437C62.3064 29.3437 62.4207 29.2995 62.5008 29.211C62.5808 29.1225 62.6204 28.9922 62.6196 28.8201V27.7081H63.0467V28.8341C63.0467 29.11 62.9687 29.3251 62.8126 29.4796C62.6565 29.6341 62.4371 29.7116 62.1542 29.712C61.8718 29.712 61.6513 29.634 61.4929 29.4781Z" fill="#CEC7CC"/>
<path d="M63.996 29.5796C63.8361 29.4952 63.7021 29.369 63.6083 29.2145C63.5136 29.0571 63.4647 28.8764 63.4672 28.6927C63.4646 28.5097 63.5135 28.3296 63.6083 28.1729C63.7025 28.0192 63.8364 27.8937 63.996 27.8097C64.1662 27.7197 64.3564 27.6741 64.5489 27.6769C64.9074 27.6769 65.1785 27.7884 65.3622 28.0112L65.0796 28.2795C65.0159 28.2051 64.9366 28.1456 64.8473 28.1051C64.758 28.0647 64.661 28.0444 64.563 28.0456C64.4446 28.0436 64.3277 28.0719 64.2234 28.128C64.1252 28.1814 64.044 28.2614 63.9893 28.3588C63.9321 28.4607 63.903 28.5759 63.9049 28.6927C63.9027 28.8107 63.9318 28.9271 63.9893 29.0302C64.0439 29.1277 64.1251 29.2077 64.2234 29.261C64.3276 29.3171 64.4445 29.3456 64.563 29.3437C64.6614 29.3454 64.759 29.3249 64.8484 29.2837C64.9379 29.2426 65.0169 29.1818 65.0796 29.1059L65.3622 29.3781C65.1738 29.6009 64.9027 29.7122 64.5489 29.712C64.3564 29.7148 64.1663 29.6693 63.996 29.5796ZM64.0702 30.3904L64.1495 30.1873C64.2219 30.2243 64.3023 30.2432 64.3836 30.2424C64.5053 30.2424 64.5665 30.201 64.5665 30.1185C64.5668 30.102 64.5628 30.0857 64.5549 30.0712C64.547 30.0567 64.5355 30.0445 64.5215 30.0358C64.4797 30.0118 64.4317 30.0008 64.3836 30.0039H64.2769L64.3699 29.6538H64.6044L64.5559 29.8467C64.6547 29.8581 64.7295 29.8897 64.7789 29.9422C64.804 29.9678 64.8236 29.9983 64.8367 30.0317C64.8497 30.0651 64.8558 30.1008 64.8547 30.1367C64.8555 30.1838 64.8442 30.2304 64.8219 30.272C64.7996 30.3135 64.767 30.3487 64.7273 30.3742C64.6424 30.434 64.5287 30.4638 64.3862 30.4636C64.2763 30.4665 64.1675 30.4413 64.0702 30.3904Z" fill="#CEC7CC"/>
<path d="M66.9921 29.2508H65.9963L65.8103 29.6776H65.3876L66.2833 27.7081H66.7143L67.6062 29.6776H67.1746L66.9921 29.2508ZM66.5939 27.4223C66.5394 27.3914 66.487 27.3568 66.4372 27.3188C66.4081 27.2947 66.3777 27.2723 66.3461 27.2516C66.3251 27.2377 66.3006 27.23 66.2754 27.2294C66.2527 27.2288 66.2302 27.2335 66.2096 27.2431C66.189 27.2526 66.1708 27.2668 66.1566 27.2844C66.1231 27.3278 66.1055 27.3812 66.1066 27.436H65.8756C65.8777 27.2959 65.9128 27.1839 65.9807 27.1001C66.0121 27.0594 66.0526 27.0267 66.099 27.0045C66.1453 26.9824 66.1963 26.9715 66.2477 26.9728C66.2998 26.9717 66.3514 26.9836 66.3977 27.0075C66.4522 27.0383 66.5046 27.0728 66.5544 27.1106C66.5834 27.1349 66.614 27.1573 66.6458 27.1778C66.6667 27.1917 66.6911 27.1995 66.7162 27.2001C66.7387 27.2007 66.7609 27.1964 66.7815 27.1875C66.8021 27.1786 66.8205 27.1653 66.8354 27.1485C66.8686 27.1077 66.8863 27.0565 66.8854 27.004H67.116C67.1115 27.1394 67.076 27.2484 67.0093 27.3309C66.9779 27.371 66.9376 27.4031 66.8915 27.4247C66.8454 27.4463 66.7948 27.4567 66.7439 27.4551C66.692 27.4568 66.6404 27.4455 66.5939 27.4223ZM66.8507 28.9184L66.4958 28.099L66.141 28.9184H66.8507Z" fill="#CEC7CC"/>
<path d="M68.2226 29.5796C68.062 29.4956 67.9274 29.3693 67.8333 29.2145C67.7385 29.0571 67.6896 28.8764 67.6922 28.6928C67.6897 28.5091 67.7385 28.3284 67.8333 28.171C67.9272 28.0165 68.0619 27.8908 68.2226 27.8078C68.3939 27.7192 68.5846 27.6742 68.7775 27.677C68.9715 27.674 69.1634 27.7189 69.3359 27.8078C69.4965 27.8908 69.6312 28.0165 69.7251 28.171C69.8198 28.3284 69.8687 28.5091 69.8662 28.6928C69.8687 28.8764 69.8198 29.0571 69.7251 29.2145C69.631 29.3693 69.4964 29.4956 69.3359 29.5796C69.1636 29.6695 68.9717 29.715 68.7775 29.7121C68.5844 29.7147 68.3937 29.6692 68.2226 29.5796ZM69.1116 29.2594C69.2087 29.2048 69.2886 29.1244 69.3426 29.027C69.3986 28.9246 69.4272 28.8095 69.4254 28.6928C69.4271 28.5762 69.3986 28.4611 69.3426 28.3588C69.2889 28.2616 69.2089 28.1816 69.1116 28.128C69.0091 28.072 68.8937 28.0436 68.7768 28.0456C68.6611 28.044 68.547 28.0731 68.4462 28.1299C68.3492 28.1843 68.2687 28.264 68.2134 28.3604C68.1562 28.4618 68.1271 28.5765 68.1289 28.6928C68.1272 28.8097 68.1563 28.9249 68.2134 29.027C68.2683 29.1243 68.3488 29.2046 68.4462 29.2594C68.547 29.3162 68.6611 29.3453 68.7768 29.3437C68.8937 29.3456 69.009 29.3165 69.111 29.2594H69.1116Z" fill="#CEC7CC"/>
</svg>
