<svg width="70" height="30" viewBox="0 0 70 30" fill="none" xmlns="http://www.w3.org/2000/svg">
<path d="M50.8138 13.9238C50.8138 15.6341 50.1322 17.2744 48.9188 18.4837C47.7054 19.6931 46.0597 20.3725 44.3437 20.3725H23.634L25.7407 14.9516H44.3445C44.4799 14.9516 44.6139 14.9251 44.7389 14.8735C44.8639 14.8218 44.9775 14.7462 45.0732 14.6508C45.1689 14.5554 45.2448 14.4422 45.2966 14.3176C45.3484 14.193 45.375 14.0594 45.375 13.9246C45.375 13.7897 45.3484 13.6561 45.2966 13.5315C45.2448 13.4069 45.1689 13.2937 45.0732 13.1983C44.9775 13.1029 44.8639 13.0273 44.7389 12.9757C44.6139 12.9241 44.4799 12.8975 44.3445 12.8975H30.0346C28.3186 12.8975 26.6729 12.2181 25.4596 11.0087C24.2462 9.79932 23.5645 8.15906 23.5645 6.44874C23.5645 4.73843 24.2462 3.09817 25.4596 1.88879C26.6729 0.67942 28.3186 0 30.0346 0H49.8986V5.42088H30.0354C29.7621 5.42088 29.5 5.52909 29.3067 5.7217C29.1135 5.91432 29.0049 6.17556 29.0049 6.44796C29.0049 6.72036 29.1135 6.9816 29.3067 7.17421C29.5 7.36683 29.7621 7.47504 30.0354 7.47504H44.3445C46.0604 7.47525 47.7059 8.15476 48.9191 9.36411C50.1323 10.5735 50.8138 12.2136 50.8138 13.9238Z" fill="#CEC7CC"/>
<path d="M70 6.44874C70 8.15905 69.3183 9.79932 68.1049 11.0087C66.8916 12.2181 65.2459 12.8975 63.5299 12.8975H56.8831V20.3733H51.4435V8.97004C51.4445 8.57443 51.6029 8.19538 51.884 7.91601C52.165 7.63664 52.5457 7.47975 52.9426 7.47975H63.5291C63.8024 7.47975 64.0645 7.37154 64.2578 7.17893C64.451 6.98631 64.5596 6.72507 64.5596 6.45267C64.5597 6.31777 64.5331 6.18416 64.4814 6.05951C64.4296 5.93485 64.3537 5.82158 64.258 5.72619C64.1623 5.63079 64.0487 5.55514 63.9236 5.50356C63.7985 5.45199 63.6645 5.42549 63.5291 5.42559H48.8831V4.31618e-07H63.5275C64.3774 -0.000309468 65.219 0.166264 66.0043 0.490205C66.7895 0.814145 67.5031 1.28911 68.1041 1.88796C68.7052 2.48681 69.182 3.19782 69.5073 3.98037C69.8326 4.76292 70 5.60168 70 6.44874Z" fill="#CEC7CC"/>
<path d="M24.8863 14.9517L22.7764 20.3726H0.0112V0.00402832H24.7451L24.689 0.147159L22.6376 5.4249H6.4805C6.2072 5.4249 5.94509 5.53311 5.75184 5.72573C5.55858 5.91834 5.45002 6.17958 5.45002 6.45198C5.45002 6.72438 5.55858 6.98562 5.75184 7.17824C5.94509 7.37085 6.2072 7.47906 6.4805 7.47906H22.0789L20.1963 12.314L20.1411 12.4572L19.969 12.9007H6.47655C6.20325 12.9007 5.94114 13.0089 5.74789 13.2015C5.55464 13.3942 5.44607 13.6554 5.44607 13.9278C5.44607 14.2002 5.55464 14.4614 5.74789 14.6541C5.94114 14.8467 6.20325 14.9549 6.47655 14.9549L24.8863 14.9517Z" fill="#CEC7CC"/>
<path d="M3.59247 29.9135C2.26924 29.9184 0.990483 29.4378 0 28.5632L1.1007 27.2491C1.86291 27.8782 2.66141 28.2715 3.62561 28.2715C4.38782 28.2715 4.84783 27.9703 4.84783 27.4756V27.4559C4.84783 26.9841 4.55746 26.7442 3.14194 26.3824C1.43604 25.9483 0.33534 25.478 0.33534 23.8022V23.7778C0.33534 22.2466 1.56939 21.2337 3.29895 21.2337C4.533 21.2337 5.58715 21.6198 6.44483 22.3072L5.48616 23.7039C4.73658 23.1856 3.99804 22.8726 3.28475 22.8726C2.57146 22.8726 2.19588 23.1982 2.19588 23.6079V23.6323C2.19588 24.1867 2.55884 24.3676 4.0225 24.7412C5.74023 25.1871 6.70522 25.8021 6.70522 27.2735V27.2971C6.70443 28.9737 5.42225 29.9135 3.59247 29.9135Z" fill="#CEC7CC"/>
<path d="M16.3701 26.4336V29.7971H14.5072V26.4658L11.2532 21.354H13.4309L15.4509 24.742L17.5079 21.354H19.6249L16.3701 26.4336Z" fill="#CEC7CC"/>
<path d="M27.5365 29.9135C26.2133 29.9184 24.9345 29.4378 23.944 28.5632L25.0447 27.2491C25.807 27.8782 26.6055 28.2715 27.5697 28.2715C28.3319 28.2715 28.7919 27.9703 28.7919 27.4756V27.4559C28.7919 26.9841 28.5015 26.7442 27.086 26.3824C25.3801 25.9483 24.2794 25.478 24.2794 23.8022V23.7778C24.2794 22.2466 25.5134 21.2337 27.243 21.2337C28.477 21.2337 29.5312 21.6198 30.3889 22.3072L29.4207 23.7054C28.6712 23.1872 27.9326 22.8742 27.2193 22.8742C26.506 22.8742 26.1305 23.1998 26.1305 23.6095V23.6339C26.1305 24.1883 26.4934 24.3692 27.9571 24.7427C29.6748 25.1886 30.6398 25.8036 30.6398 27.275V27.2986C30.6461 28.9737 29.3631 29.9135 27.5365 29.9135Z" fill="#CEC7CC"/>
<path d="M40.0822 23.0653V29.7932H38.2193V23.0653H35.6423V21.3532H42.6592V23.0653H40.0822Z" fill="#CEC7CC"/>
<path d="M48.2518 29.7932V21.3532H54.643V23.0047H50.1061V24.7168H54.0907V26.3683H50.0982V28.1409H54.6951V29.7924L48.2518 29.7932Z" fill="#CEC7CC"/>
<path d="M67.1326 29.7932V24.2827L64.7498 27.8885H64.7008L62.3424 24.3188V29.7932H60.515V21.3532H62.5239L64.7498 24.922L66.9756 21.3532H68.9837V29.7932H67.1326Z" fill="#CEC7CC"/>
</svg>
