<svg width="70" height="33" viewBox="0 0 70 33" fill="none" xmlns="http://www.w3.org/2000/svg">
<path d="M35.8086 8.71293C36.1695 10.0128 36.5794 11.8425 37.3979 13.0939C38.2642 14.4422 39.3959 15.3573 40.3351 15.3573C40.8167 15.3573 41.1537 15.2605 41.2983 15.2605C41.4667 15.2605 41.5152 15.3089 41.5152 15.429C41.5152 15.6458 40.7928 16.3442 39.9981 16.3442C38.7942 16.3442 37.4218 15.4535 36.4103 13.7684C35.3774 12.0593 34.8455 10.0851 34.5324 8.68906C34.3388 8.59289 34.2677 8.44832 34.2677 8.15918C34.2677 7.70224 34.8939 7.60543 35.3271 7.60543C37.2049 7.60543 40.3112 5.02963 40.3112 3.29673C40.3112 2.09305 39.4443 1.5393 37.711 1.5393C33.4008 1.5393 29.2597 4.90958 29.2597 7.00391C29.2597 7.22077 29.4533 7.4131 29.4533 7.65383C29.4533 8.08689 29.066 8.37604 28.6348 8.37604C28.2036 8.37604 27.8873 8.04043 27.8873 7.51055C27.8873 3.94794 32.7288 0.553772 38.0222 0.553772C40.217 0.553772 41.5377 1.37214 41.5377 3.17733C41.539 5.41622 37.9757 8.20888 35.8086 8.71293ZM37.1572 3.39418C37.1572 3.61104 36.6511 4.16479 36.338 4.45329C35.6879 5.03415 34.6047 6.3314 33.8585 7.63124C32.0284 10.7847 31.7876 12.8545 31.7876 14.0581C31.7876 14.3234 31.7876 14.7081 31.3544 14.7081C31.0175 14.7081 30.4391 14.4196 30.4391 13.8897C30.4391 13.4566 30.7522 10.7847 32.6784 7.31822C34.6047 3.85177 36.001 2.69586 36.4348 2.69586C36.8195 2.69586 37.1572 2.91271 37.1572 3.39418Z" fill="#CEC7CC"/>
<path d="M46.0416 9.29376C46.2579 9.29376 46.429 9.41445 46.429 9.65519C46.429 9.9198 46.3082 10.0883 46.0197 10.4497C44.8874 11.8457 42.9373 13.9161 40.2648 13.9161C39.4701 13.9161 38.7962 13.2901 38.7962 12.231C38.7962 12.0864 38.6754 12.0141 38.6754 11.7495C38.6754 11.5088 38.8923 11.2196 39.1331 11.1474C40.0479 9.00527 41.7095 7.94617 42.9618 7.94617C43.4673 7.94617 44.0211 8.33341 44.0211 8.8607C44.0211 10.1121 41.9987 11.5327 40.4094 11.8941C40.0963 11.9657 40.0001 12.1342 40.0001 12.3033C40.0001 12.4969 40.2163 12.9532 40.674 12.9532C42.6965 12.9532 44.3097 11.0996 45.1766 10.0405C45.4639 9.67713 45.7763 9.29376 46.0416 9.29376ZM40.3351 11.0273C41.2021 10.8589 42.8391 9.67907 42.8391 9.26988C42.8391 9.12531 42.7907 9.02915 42.6455 9.02915C42.069 9.02721 40.7928 10.3032 40.3351 11.0254V11.0273Z" fill="#CEC7CC"/>
<path d="M52.6868 1.03264C52.6868 2.93399 50.6643 6.2804 46.9325 9.19309C46.7388 9.52999 46.4748 10.4691 46.4509 10.8066C47.7988 9.19309 49.3397 7.82162 50.7114 7.82162C51.3376 7.82162 51.7443 8.27921 51.7443 8.97688C51.7443 10.9989 49.8903 13.7438 48.0609 13.7438C47.17 13.7438 46.9531 13.334 46.9531 12.9009C46.9531 12.6118 47.2178 12.2994 47.6032 12.2994C47.8201 12.2994 48.0363 12.5401 48.2532 12.5401C49.1441 12.5401 50.4926 10.4936 50.4926 9.36219C50.4926 9.12145 50.2757 8.97495 50.0588 8.97495C49.6018 8.97495 48.5663 9.91401 47.3863 11.2138C46.9293 11.7192 46.4232 12.6098 46.4232 12.9713C46.4232 13.3805 45.8938 13.8619 45.6046 13.8619C45.2915 13.8619 45.0236 13.7174 45.0236 12.8751C45.0236 9.89013 46.2501 6.49596 47.6961 3.824C49.1254 1.22626 50.3273 0 51.6997 0C52.2775 0 52.6868 0.505349 52.6868 1.03264ZM48.7865 4.09249C48.2002 5.23081 47.6854 6.40448 47.2449 7.6067C49.8458 5.67953 51.6036 2.16661 51.6036 1.396C51.6036 1.22755 51.5067 1.10751 51.2905 1.10751C50.9529 1.10751 49.8458 2.02204 48.7865 4.09249Z" fill="#CEC7CC"/>
<path d="M58.8026 9.29376C59.0188 9.29376 59.1899 9.41445 59.1899 9.65519C59.1899 9.9198 59.0692 10.0883 58.78 10.4497C57.6483 11.8457 55.6982 13.9161 53.0257 13.9161C52.231 13.9161 51.5571 13.2901 51.5571 12.231C51.5571 12.0864 51.4364 12.0141 51.4364 11.7495C51.4364 11.5088 51.6533 11.2196 51.894 11.1474C52.8088 9.00527 54.4704 7.94617 55.7227 7.94617C56.2282 7.94617 56.782 8.33341 56.782 8.8607C56.782 10.1121 54.7596 11.5327 53.167 11.8941C52.854 11.9657 52.7578 12.1342 52.7578 12.3033C52.7578 12.4969 52.9747 12.9532 53.4317 12.9532C55.4542 12.9532 57.0674 11.0996 57.9343 10.0405C58.2274 9.67713 58.5379 9.29376 58.8026 9.29376ZM53.096 11.0273C53.963 10.8589 55.6001 9.67907 55.6001 9.26988C55.6001 9.12531 55.5516 9.02915 55.4064 9.02915C54.8293 9.02721 53.5537 10.3032 53.096 11.0254V11.0273Z" fill="#CEC7CC"/>
<path d="M63.9081 9.29376C64.125 9.29376 64.2954 9.41445 64.2954 9.65519C64.2954 9.9198 64.1747 10.0883 63.8861 10.4497C62.7545 11.8457 60.419 13.8438 58.372 13.8438C57.8426 13.8438 56.9034 13.4347 56.9034 12.2787C56.9034 10.7143 59.1666 7.94617 61.069 7.94617C61.6468 7.94617 62.2484 8.45152 62.2484 9.00527C62.2484 9.75135 61.4783 10.4252 60.9728 10.4252C60.7559 10.4252 60.539 10.2812 60.539 9.94368C60.539 9.72747 60.6836 9.55644 60.8282 9.46221C60.9483 9.38993 61.069 9.29376 61.069 9.17372C61.069 9.14919 61.0206 9.10144 60.9483 9.10144C60.1059 9.10144 58.2035 10.9086 58.2035 12.2065C58.2035 12.5195 58.3972 12.8086 58.6851 12.8086C60.2499 12.8086 62.2007 11.1474 63.0431 10.0405C63.3271 9.67713 63.6421 9.29376 63.9081 9.29376Z" fill="#CEC7CC"/>
<path d="M69.6127 11.4345C69.8296 11.4345 70 11.5546 70 11.7953C70 12.0606 69.7114 12.3491 69.3261 12.7105C68.676 13.312 67.9298 13.625 67.3759 13.625C66.5812 13.625 66.1959 13.0713 66.1959 12.3988C66.1959 12.1335 66.2197 11.8934 66.2443 11.5559C65.5458 12.2542 63.9087 13.8909 62.8229 13.8909C62.5099 13.8909 62.0044 13.4579 62.0044 12.8318C62.0044 10.3522 64.7976 7.9455 66.6271 7.9455C67.0144 7.9455 67.374 8.18623 67.6147 8.47472C67.687 8.47472 67.9517 7.99326 68.3126 7.99326C68.7702 7.99326 69.0349 8.25787 69.0349 8.59541C69.0349 9.0046 68.1686 10.0398 67.8794 10.6652C67.6386 11.1467 67.4463 11.6766 67.4463 12.0135C67.4463 12.2542 67.5424 12.5188 67.8336 12.5188C68.0744 12.5188 68.4146 12.3504 68.7728 12.0373C69.1072 11.723 69.348 11.4345 69.6127 11.4345ZM63.3045 12.3975C63.3045 12.5175 63.4007 12.5911 63.5214 12.5911C63.8823 12.5911 66.844 10.0153 66.844 9.55771C66.844 9.29245 66.6271 9.07624 66.3146 9.07624C65.3515 9.07559 63.3045 11.29 63.3045 12.3975Z" fill="#CEC7CC"/>
<path d="M41.8812 22.3122C37.8363 22.2664 34.7299 20.0249 34.7299 17.4736C34.7299 16.6307 34.9236 16.3661 35.4278 16.3661C35.9093 16.3661 36.0301 16.7534 36.0301 17.4736C36.0301 19.4234 38.6767 21.1808 42.4344 21.1808C44.6015 17.2807 46.4554 14.4886 48.8897 14.4886C50.0214 14.4886 50.8644 15.114 50.8644 16.3177C50.8644 18.7973 48.2177 21.5416 43.3523 22.2638C42.5816 23.7805 41.643 25.3695 41.643 25.3695C43.3523 26.4524 44.3394 27.9453 44.3394 29.6543C44.3394 30.0873 44.0024 30.4727 43.5931 30.4727C43.1116 30.4727 42.8708 30.1358 42.8708 29.7504C42.8708 29.4135 42.967 29.1483 42.967 28.8598C42.967 27.993 42.1962 26.9823 40.9923 26.3079C38.729 29.8705 36.1288 32.254 32.7101 32.254C30.206 32.254 28.4495 31.0019 28.4495 28.5468C28.4495 26.1633 30.8813 23.7805 34.9501 23.7805C37.0694 23.7805 39.0679 24.1677 40.5126 24.7912C40.7741 24.4065 41.379 23.3474 41.8812 22.3122ZM29.6263 28.4984C29.6263 30.0873 30.758 31.0987 32.732 31.0987C35.5491 31.0987 37.9809 28.6429 39.9071 25.7302C38.607 25.2004 36.8008 24.888 34.8507 24.888C31.408 24.888 29.6263 26.9339 29.6263 28.4984ZM48.8671 15.6439C47.3501 15.6439 45.7854 17.9551 44.0037 21.0117C47.3501 20.3618 49.6379 18.099 49.6379 16.4862C49.6347 15.9569 49.2971 15.6439 48.8671 15.6439Z" fill="#CEC7CC"/>
<path d="M52.5467 23.2267C52.7629 23.2267 52.934 23.3474 52.934 23.5881C52.934 23.8527 52.8133 24.0212 52.5247 24.382C51.3918 25.7515 49.2254 27.7523 47.997 27.7523C47.4915 27.7523 46.9376 27.3192 46.9376 26.4763C46.9376 25.4172 48.1642 23.0557 48.3578 22.6968C48.6464 22.2154 48.8872 21.8307 49.2248 21.8307C49.5624 21.8307 49.8264 22.0243 49.8264 22.3361C49.8264 22.673 49.6579 22.8414 49.5133 23.0583C48.8155 24.1896 48.1416 25.8509 48.1416 26.3324C48.1416 26.5008 48.2623 26.7196 48.4785 26.7196C49.1286 26.7196 50.8625 25.0829 51.681 23.9754C51.9702 23.612 52.2827 23.2267 52.5467 23.2267ZM52.2814 18.2436C52.2814 18.8696 51.6313 19.2549 51.3189 19.2549C50.9316 19.2549 50.7889 18.7489 50.7889 18.3881C50.7889 18.0009 51.1762 17.5214 51.7036 17.5214C51.9941 17.5214 52.2827 17.6659 52.2827 18.2436H52.2814Z" fill="#CEC7CC"/>
<path d="M63.7196 23.2267C63.9365 23.2267 64.1069 23.3473 64.1069 23.5881C64.1069 23.8527 63.9862 24.0211 63.6977 24.3819C62.9249 25.3694 60.9987 27.7522 59.6747 27.7522C58.9523 27.7522 58.5431 27.2469 58.5431 26.3801C58.5431 25.4171 59.073 24.1412 59.073 23.5881C59.0752 23.5403 59.059 23.4936 59.0276 23.4575C58.9962 23.4215 58.9522 23.3989 58.9046 23.3945C58.2061 23.3945 56.2798 25.8741 55.9183 26.7647C55.6775 27.3456 55.4613 27.7277 55.1482 27.7277C55.0596 27.7247 54.9724 27.7042 54.8918 27.6675C54.8111 27.6307 54.7385 27.5784 54.6781 27.5135C54.6177 27.4486 54.5707 27.3725 54.5398 27.2894C54.5089 27.2063 54.4948 27.1179 54.4981 27.0294C54.4981 26.8609 54.7144 26.3794 54.9074 25.8257C55.1934 24.8879 55.5807 23.7565 55.5807 23.3951C55.5807 23.1544 55.4367 23.1066 55.2437 23.1066C54.9791 23.1066 53.7028 23.8766 52.9082 25.0318C52.4505 25.6818 52.1135 26.4762 51.8489 27.0326C51.5358 27.6586 51.5358 28.0194 51.1749 28.0194C50.9341 28.0194 50.6211 27.7548 50.6211 27.3695C50.6211 26.8641 51.3434 25.2997 52.4027 22.0017C52.5964 21.3995 52.8843 21.0626 53.149 21.0626C53.4859 21.0626 53.7751 21.1833 53.7751 21.6403C53.7751 21.9772 53.3175 23.0369 53.1012 23.6145C53.799 22.7962 54.9791 21.9294 55.5542 21.9294C56.0119 21.9294 56.8059 22.1701 56.8059 22.8685C56.7967 23.2414 56.7484 23.6124 56.662 23.9753C57.4566 23.0369 58.6631 22.194 59.3823 22.194C59.7915 22.194 60.3215 22.4831 60.3215 23.0608C60.3215 24.0934 59.6476 25.179 59.6476 26.2626C59.6476 26.5272 59.7199 26.6957 59.9122 26.6957C60.6585 26.6957 62.0309 25.0822 62.8494 23.9753C63.1418 23.612 63.4562 23.2267 63.7196 23.2267Z" fill="#CEC7CC"/>
<path d="M69.4261 25.3694C69.643 25.3694 69.8135 25.4895 69.8135 25.7302C69.8135 25.9948 69.5243 26.284 69.1389 26.6448C68.4888 27.2469 67.7426 27.5599 67.1887 27.5599C66.3941 27.5599 66.0087 27.0062 66.0087 26.3337C66.0087 26.0684 66.0332 25.8277 66.0571 25.4908C65.3586 26.1891 63.7215 27.8258 62.6357 27.8258C62.3227 27.8258 61.8166 27.3928 61.8166 26.7667C61.8166 24.2871 64.6098 21.8798 66.4399 21.8798C66.8272 21.8798 67.1861 22.1205 67.4269 22.4096C67.4992 22.4096 67.7639 21.9282 68.1254 21.9282C68.5824 21.9282 68.8477 22.1928 68.8477 22.5297C68.8477 22.9389 67.9808 23.9741 67.6916 24.6001C67.4508 25.0816 67.2584 25.6115 67.2584 25.9484C67.2584 26.1891 67.3546 26.4537 67.6458 26.4537C67.8865 26.4537 68.2235 26.2853 68.5844 25.9722C68.9207 25.6579 69.1615 25.3694 69.4261 25.3694ZM63.118 26.3324C63.118 26.4524 63.2141 26.526 63.3342 26.526C63.6957 26.526 66.6574 23.9502 66.6574 23.4926C66.6574 23.228 66.4405 23.0111 66.1274 23.0111C65.1643 23.0099 63.118 25.2249 63.118 26.3324Z" fill="#CEC7CC"/>
<path d="M26.0314 10.2554C25.5974 8.65569 24.8621 7.15344 23.8649 5.82927C21.8678 3.14673 18.9288 1.31979 15.639 0.715941C12.3492 0.112096 8.95271 0.776145 6.13276 2.57451C4.74053 3.46213 3.5249 4.60004 2.54747 5.9306C1.07898 7.93017 0.206592 10.3045 0.0311721 12.779C-0.0245513 13.5965 -0.00553676 14.4174 0.0879792 15.2315C0.368359 17.6721 1.3331 19.9838 2.87093 21.8998C4.40876 23.8159 6.45702 25.2583 8.77945 26.0607C9.54237 26.3253 10.3291 26.5157 11.1286 26.6293C11.5275 26.6828 11.9277 26.7248 12.3299 26.7409C12.53 26.757 12.7314 26.7538 12.9322 26.7558H13.1672C13.1975 28.5171 13.2272 30.2784 13.3027 32.0397C13.3027 32.0991 13.3263 32.156 13.3683 32.198C13.4103 32.24 13.4673 32.2636 13.5267 32.2636C13.5861 32.2636 13.6431 32.24 13.6851 32.198C13.7271 32.156 13.7507 32.0991 13.7507 32.0397C13.8314 30.1551 13.8598 28.2712 13.894 26.3866L13.9076 24.9202L13.9121 23.4539L13.8921 20.5238C13.8824 19.6705 13.8714 18.8206 13.8546 17.9673C13.8546 17.8976 13.8546 17.8286 13.8508 17.7595C15.4556 17.7363 16.7176 17.3193 17.6155 16.5171V16.5223C20.0821 16.5223 21.0762 14.2969 21.4674 12.779C21.4913 12.779 21.5146 12.7828 21.5391 12.7828C21.89 12.7853 22.229 12.655 22.4879 12.4181C22.7468 12.1812 22.9066 11.8553 22.9353 11.5055C22.9639 11.1558 22.8593 10.8082 22.6423 10.5323C22.4254 10.2565 22.1122 10.0728 21.7655 10.0182C21.4188 9.96349 21.0643 10.0419 20.773 10.2375C20.4816 10.4332 20.2751 10.7318 20.1947 11.0733C20.1142 11.4149 20.1659 11.7742 20.3394 12.0793C20.5128 12.3844 20.7951 12.6126 21.1298 12.7183C20.7812 14.0588 19.9414 15.9498 17.9667 16.1531C18.0054 16.1086 18.0448 16.0653 18.0823 16.0189C18.3906 15.6303 18.6339 15.1944 18.8027 14.7281C18.8806 14.7243 18.9578 14.7122 19.0331 14.6919C19.2394 14.6358 19.4254 14.522 19.5693 14.364C19.7133 14.2059 19.8092 14.0101 19.8457 13.7995C19.8823 13.5889 19.8581 13.3722 19.7759 13.1749C19.6937 12.9776 19.557 12.8078 19.3817 12.6854C19.3182 12.6421 19.2505 12.6054 19.1797 12.5757C19.1862 12.1584 19.1625 11.7412 19.1087 11.3274C19.4321 11.2328 19.7076 11.0192 19.8796 10.7296C20.0517 10.4399 20.1076 10.0958 20.036 9.76663C19.9644 9.43744 19.7707 9.14762 19.4938 8.95559C19.217 8.76355 18.8776 8.68358 18.5441 8.7318C18.2106 8.78001 17.9078 8.95282 17.6967 9.21539C17.4856 9.47797 17.3819 9.81079 17.4065 10.1468C17.4311 10.4828 17.5822 10.7969 17.8293 11.026C18.0764 11.255 18.4012 11.3819 18.7381 11.381H18.7646C18.8108 11.7492 18.8323 12.12 18.8291 12.4911C18.7988 12.4911 18.7691 12.484 18.7381 12.484C18.6989 12.4837 18.6596 12.4856 18.6206 12.4898C18.377 12.5154 18.1483 12.6197 17.9694 12.787C17.7904 12.9543 17.6709 13.1754 17.629 13.4167C17.5871 13.658 17.6251 13.9064 17.7372 14.1242C17.8492 14.342 18.0293 14.5173 18.2501 14.6235L18.2804 14.6358C18.3334 14.6595 18.3883 14.679 18.4444 14.6939C18.2937 15.0954 18.0821 15.4713 17.8169 15.8085C16.9777 16.8476 15.6454 17.3858 13.8469 17.4116V17.4L13.8353 16.6901C15.7022 16.612 16.2883 15.6374 16.4678 15.0766C16.6535 15.0544 16.8245 14.9647 16.9484 14.8247C17.0723 14.6846 17.1404 14.5039 17.1397 14.3169C17.139 14.1299 17.0696 13.9497 16.9447 13.8106C16.8197 13.6714 16.648 13.5831 16.4621 13.5623C16.2763 13.5415 16.0893 13.5897 15.9367 13.6978C15.784 13.8059 15.6765 13.9662 15.6345 14.1484C15.5924 14.3307 15.6189 14.5219 15.7087 14.6859C15.7986 14.8499 15.9456 14.9752 16.1218 15.0379C16.0621 15.2029 15.9772 15.3577 15.87 15.4967C15.4717 16.0131 14.7687 16.3041 13.8295 16.3454L13.8198 15.7684V15.7239H13.8146V15.5129C13.8853 15.4966 13.9541 15.4731 14.0199 15.4425C14.0451 15.4316 14.0683 15.4186 14.0916 15.4064C14.2666 15.3114 14.4127 15.1708 14.5144 14.9996C14.6161 14.8284 14.6696 14.6329 14.6693 14.4338C14.6698 14.3675 14.664 14.3014 14.6519 14.2363C14.6421 14.1851 14.6287 14.1346 14.6119 14.0852C15.1128 13.709 15.4239 13.0694 15.6047 12.5511H15.6144C15.9186 12.551 16.2116 12.4359 16.4346 12.2289C16.6576 12.022 16.7941 11.7384 16.8169 11.4351C16.8396 11.1317 16.7469 10.831 16.5573 10.5931C16.3676 10.3552 16.0951 10.1977 15.7943 10.1522C15.4935 10.1067 15.1865 10.1765 14.935 10.3476C14.6834 10.5187 14.5059 10.7786 14.4378 11.0751C14.3697 11.3716 14.4163 11.6828 14.568 11.9465C14.7197 12.2101 14.9655 12.4067 15.2561 12.4969C15.0954 12.9409 14.8378 13.4611 14.4498 13.7748C14.4395 13.7619 14.4318 13.7471 14.4214 13.7341C14.3762 13.6777 14.3254 13.6261 14.2697 13.5799C14.1884 13.512 14.0978 13.4561 14.0005 13.414C13.934 13.3862 13.8651 13.3646 13.7946 13.3495L13.7882 12.7151L13.7817 11.7224L13.7746 10.6543V10.4478C13.845 10.4381 13.914 10.4239 13.9812 10.4077C14.4087 10.2978 14.7814 10.0356 15.0294 9.67044C15.2774 9.30528 15.3837 8.86221 15.3282 8.42432C15.2728 7.98643 15.0595 7.5838 14.7283 7.29195C14.3971 7.0001 13.9708 6.83908 13.5293 6.83908C13.0878 6.83908 12.6615 7.0001 12.3303 7.29195C11.9991 7.5838 11.7858 7.98643 11.7303 8.42432C11.6749 8.86221 11.7811 9.30528 12.0291 9.67044C12.2771 10.0356 12.6499 10.2978 13.0774 10.4077C13.142 10.4239 13.2143 10.4381 13.2846 10.4478V10.6543L13.2775 11.7224V12.1387V12.3452C13.2085 12.3455 13.1395 12.3414 13.071 12.333C12.3886 12.2555 12.0194 11.8657 11.8193 11.4823C11.8083 11.461 11.798 11.4404 11.7883 11.4178C11.9368 11.2668 12.0249 11.0666 12.0358 10.8551C12.0467 10.6435 11.9796 10.4353 11.8474 10.2699C11.7152 10.1044 11.5269 9.99311 11.3181 9.95704C11.1094 9.92097 10.8946 9.96263 10.7145 10.0741C10.5344 10.1856 10.4014 10.3593 10.3407 10.5622C10.2799 10.7651 10.2957 10.9832 10.3849 11.1753C10.4741 11.3674 10.6306 11.5202 10.8249 11.6047C11.0191 11.6892 11.2376 11.6996 11.4391 11.634C11.6856 12.1368 12.1595 12.6667 13.0684 12.7467C13.1329 12.7538 13.2033 12.7577 13.275 12.7589V12.9642L13.2704 13.3663C13.1989 13.3863 13.1297 13.4138 13.0639 13.4482C12.9415 13.5115 12.832 13.5971 12.7411 13.7006C12.687 13.7614 12.6402 13.8283 12.6017 13.9C12.5431 14.0051 12.5025 14.1191 12.4816 14.2376C12.4705 14.3015 12.4649 14.3663 12.4648 14.4312V14.4422C12.467 14.6397 12.522 14.833 12.6242 15.0021C12.7264 15.1712 12.8719 15.3099 13.0458 15.4038C13.1055 15.4384 13.1684 15.4672 13.2336 15.4896L13.2252 16.1596V16.3674C13.1549 16.3674 13.0858 16.3603 13.0187 16.3538C12.0704 16.2706 11.3145 15.9472 10.7658 15.3857C10.3908 14.993 10.1174 14.5147 9.96917 13.9923C9.96917 13.9852 9.9653 13.9768 9.96207 13.9671C9.95885 13.9575 9.95562 13.9465 9.95239 13.9355C9.95268 13.9349 9.95283 13.9342 9.95283 13.9336C9.95283 13.9329 9.95268 13.9322 9.95239 13.9316C9.94852 13.9161 9.944 13.9007 9.94012 13.8858C10.1371 13.8289 10.3149 13.7194 10.4544 13.5691C10.5938 13.4187 10.6897 13.2332 10.7316 13.0325C10.7735 12.8318 10.7599 12.6235 10.6923 12.4299C10.6246 12.2363 10.5055 12.0649 10.3477 11.9339C10.1899 11.8029 9.99943 11.7175 9.79668 11.6866C9.59393 11.6558 9.38661 11.6808 9.19701 11.7589C9.0074 11.8371 8.84268 11.9654 8.72054 12.1301C8.59841 12.2948 8.52348 12.4897 8.50381 12.6938C8.17914 12.6104 7.8852 12.4357 7.65687 12.1903C7.47989 11.9874 7.3567 11.7433 7.2986 11.4804C7.53421 11.4469 7.74884 11.3267 7.90052 11.1433C8.0522 10.9599 8.13003 10.7266 8.11878 10.4889C8.10753 10.2513 8.00802 10.0263 7.8397 9.8581C7.67138 9.68988 7.44636 9.59048 7.20863 9.57932C6.9709 9.56817 6.73755 9.64607 6.55422 9.79778C6.37088 9.9495 6.25074 10.1641 6.21727 10.3997C6.18381 10.6353 6.23943 10.8749 6.37327 11.0716C6.50711 11.2684 6.70954 11.4082 6.94097 11.4636C7.00265 11.8166 7.15881 12.1462 7.39285 12.4175C7.67043 12.7318 8.05 12.9461 8.52576 13.0629C8.58232 13.3046 8.71705 13.5208 8.90904 13.6781C9.10103 13.8354 9.33957 13.925 9.58766 13.9329C9.74306 14.5689 10.0622 15.1532 10.5134 15.6278C11.0595 16.1845 11.7782 16.5287 12.6694 16.6604H12.7398L12.7495 16.6701C12.7934 16.6752 12.8379 16.681 12.8818 16.6849C12.9257 16.6888 12.9645 16.6946 13.0071 16.6972C13.0748 16.7043 13.1439 16.7088 13.2123 16.7114V16.9179C13.0274 16.9101 12.8429 16.8926 12.6598 16.8656C12.6579 16.8662 12.6558 16.8662 12.654 16.8656C9.66255 16.7553 8.39213 16.0705 7.84988 15.4832C7.81051 15.4406 7.77629 15.3986 7.74466 15.3541C7.96922 15.2385 8.14243 15.0431 8.23025 14.8063C8.31808 14.5695 8.31418 14.3085 8.21933 14.0744C8.12447 13.8403 7.94551 13.6502 7.7176 13.5413C7.48969 13.4324 7.2293 13.4127 6.98757 13.486C6.74584 13.5592 6.54024 13.7202 6.41116 13.9373C6.28208 14.1543 6.23884 14.4118 6.28994 14.6592C6.34104 14.9065 6.48279 15.1257 6.68734 15.2739C6.89188 15.4221 7.14445 15.4884 7.39543 15.4599C7.45149 15.5424 7.51317 15.6209 7.58005 15.6949C8.19202 16.3732 9.66384 17.1793 13.2072 17.2206L13.2039 17.4271V17.5833C13.2039 17.6408 13.2039 17.7001 13.2039 17.7582C13.2039 17.8286 13.1994 17.8989 13.1994 17.968C9.67223 18.3552 7.09396 17.8563 5.53371 16.4932C5.06045 16.0834 4.68333 15.5744 4.4292 15.0024C4.76957 14.8772 5.05062 14.6289 5.21686 14.3067C5.3831 13.9844 5.42245 13.6116 5.32713 13.2617C5.23181 12.9119 5.00875 12.6105 4.70201 12.417C4.39526 12.2236 4.02712 12.1522 3.67027 12.2169C3.31342 12.2816 2.9938 12.4777 2.77452 12.7665C2.55524 13.0553 2.45225 13.4158 2.48587 13.7768C2.51949 14.1379 2.68728 14.4732 2.95611 14.7166C3.22495 14.9599 3.57528 15.0937 3.93795 15.0914C3.98636 15.0914 4.03349 15.0914 4.07996 15.0843C4.35358 15.7239 4.76849 16.2931 5.29357 16.7495C6.57689 17.8757 8.49607 18.4411 11.0201 18.4411C11.7441 18.439 12.4675 18.398 13.1872 18.3184C13.1872 18.3888 13.1872 18.4572 13.1872 18.5262C13.1743 19.1923 13.1678 19.8564 13.1607 20.5205L13.1413 23.4539L13.1452 24.9202L13.1607 26.3866V26.3969C11.7229 26.361 10.3012 26.0851 8.95439 25.5805C6.03986 24.4625 3.64193 22.3062 2.22212 19.5266C1.52573 18.1566 1.09345 16.6678 0.947831 15.1379C0.877147 14.3763 0.875851 13.6098 0.943958 12.848C1.00834 12.0877 1.14275 11.335 1.34548 10.5994C1.75132 9.12713 2.43134 7.7446 3.34986 6.52437C4.26555 5.30602 5.39935 4.26808 6.69373 3.46323C9.2942 1.84005 12.4093 1.25172 15.4228 1.81462C18.4363 2.37752 21.1288 4.05065 22.9677 6.50307C23.8761 7.71857 24.5543 9.09006 24.9688 10.5497C25.3826 12.013 25.5186 13.5407 25.3697 15.054C25.2228 16.5689 24.7967 18.0435 24.1128 19.4033C23.4212 20.7643 22.4889 21.9888 21.3609 23.0176C20.3145 23.9486 19.1251 24.7052 17.8382 25.2584C17.7365 25.3012 17.656 25.3827 17.6144 25.4848C17.5727 25.587 17.5734 25.7015 17.6162 25.8031C17.659 25.9048 17.7404 25.9853 17.8426 26.027C17.9448 26.0686 18.0593 26.068 18.161 26.0252C18.7913 25.7808 19.4007 25.4857 19.9833 25.1429C20.1583 25.0371 20.339 24.939 20.5095 24.8254L21.0136 24.4736L21.2654 24.2974L21.5036 24.1038L21.9806 23.7166C23.2178 22.6287 24.2474 21.3254 25.0192 19.87C26.5438 16.9034 26.9048 13.4744 26.0314 10.2554Z" fill="#CEC7CC"/>
</svg>
