<svg width="70" height="54" viewBox="0 0 70 54" fill="none" xmlns="http://www.w3.org/2000/svg">
<path d="M14.765 31.0977C14.675 31.1089 14.5842 31.1193 14.4942 31.1291C14.606 31.1179 14.7277 31.104 14.8628 31.0865L14.765 31.0977ZM19.0761 30.0015C17.855 30.5255 16.5348 30.8556 15.199 31.0426C16.8063 30.8263 18.2757 30.409 19.61 29.7587C19.4342 29.8424 19.2562 29.9226 19.074 30.0015H19.0761Z" fill="#CEC7CC"/>
<path d="M23.5575 17.381C25.1465 19.466 25.2316 23.1257 24.0245 25.5449C20.3043 33.29 6.2089 32.1038 0.260972 28.2313C0.0499528 28.1043 0.166717 28.1524 0.190632 28.0457L3.01125 23.1746C7.88369 26.1226 15.9411 26.7039 17.5343 23.5039C18.109 22.3484 17.8937 20.9654 16.8309 20.2377C11.9775 17.3769 1.01924 18.4388 0.244091 10.4641C-0.670325 -2.02586 17.5547 -1.73419 24.8553 3.07619C24.9854 3.13131 24.8553 3.11806 24.8553 3.20039L22.0283 8.08474C16.8386 4.98876 9.61826 4.92247 7.77114 7.16369C6.55356 8.64574 7.16622 10.358 8.71933 11.157C10.8626 12.3383 15.0675 12.9014 17.4035 13.701C20.0236 14.4749 21.8285 15.1977 23.5575 17.381Z" fill="#CEC7CC"/>
<path d="M70 31.2533H63.177L51.8805 11.7724L40.5832 31.2533H33.7589L51.8805 0.00463867L70 31.2533Z" fill="#CEC7CC"/>
<path d="M41.568 0.00463867L23.4689 31.2533H30.2918L48.3874 0.00463867H41.568Z" fill="#CEC7CC"/>
<path d="M5.72144 38.9064H0V35.5571H15.5788V38.9064H9.85741V53.2928H5.72144V38.9064Z" fill="#CEC7CC"/>
<path d="M32.1657 50.0008V53.2942H18.3235V35.5571H31.8329V38.8505H22.432V42.7008H30.7321V45.8938H22.432V50.0008H32.1657Z" fill="#CEC7CC"/>
<path d="M44.1923 50.0999C38.4632 50.0552 37.2041 43.9282 39.6449 40.8196C41.831 38.0376 46.4263 38.0718 48.6744 40.8196C49.0605 40.154 50.1614 38.2526 50.5503 37.5813C44.3232 32.3076 33.6759 36.3184 34.3019 45.0537C34.9673 54.2209 46.2343 55.562 50.506 51.2547L48.649 48.045C47.4472 49.4159 45.9616 50.1008 44.1923 50.0999Z" fill="#CEC7CC"/>
<path d="M70 35.5571V53.2928H65.8619V46.0235H57.7426V53.2942H53.6052V35.5571H57.7426V42.5515H65.8626V35.5571H70Z" fill="#CEC7CC"/>
</svg>
