<svg width="112" height="50" viewBox="0 0 112 50" fill="none" xmlns="http://www.w3.org/2000/svg">
<path d="M103.279 22.905H101.21V3.72437H103.279V11.8697L108.418 3.72437H110.724L105.493 11.9876L111.08 22.905H108.809L104.258 13.9634L103.283 15.5247L103.279 22.905Z" fill="#7928CA"/>
<path d="M53.4551 15.4609V25L44.3564 19.7367L36.1111 14.9676L26.7279 9.53984V0L44.3564 10.1977L52.6016 14.9676L53.4551 15.4609Z" fill="#7928CA"/>
<path d="M26.7279 40.4609L53.4551 25V15.4609L26.7279 30.9234V40.4609Z" fill="#FF0080"/>
<path d="M0.000778198 25V34.5398L9.09948 29.2765L17.3447 24.5066L26.7279 19.0789V9.53979L9.09948 19.7367L0.853441 24.5066L0.000778198 25Z" fill="#FF0080"/>
<path d="M26.7279 40.4609L0 25V34.5398L26.7264 50L26.7279 40.4609Z" fill="#7928CA"/>
<path d="M60.7152 22.8954H55.9718V3.74561H60.7152C62.2475 3.74561 63.4114 4.10933 64.2069 4.83676C65.0024 5.5642 65.4002 6.5756 65.4002 7.87096V18.7724C65.4002 20.088 65.0071 21.1044 64.2209 21.8214C63.4348 22.5385 62.2662 22.8965 60.7152 22.8954ZM63.3371 18.7709V7.87018C63.3371 7.12404 63.1113 6.54469 62.6598 6.13213C62.2083 5.71957 61.5601 5.5138 60.7152 5.51484H58.034V21.1293H60.7152C62.4642 21.1293 63.3384 20.3437 63.3379 18.7724L63.3371 18.7709Z" fill="#7928CA"/>
<path d="M80.7216 7.42853V19.2146C80.7216 20.5302 80.3041 21.5466 79.4691 22.2636C78.6341 22.9807 77.387 23.3392 75.728 23.3392C74.0652 23.3392 72.813 22.9807 71.9713 22.2636C71.1295 21.5466 70.7073 20.5302 70.7047 19.2146V7.42853C70.7047 6.11291 71.122 5.09657 71.9564 4.37952C72.7909 3.66248 74.038 3.30396 75.6976 3.30396C77.3577 3.30396 78.6099 3.66248 79.4543 4.37952C80.2986 5.09657 80.721 6.11291 80.7216 7.42853ZM78.6593 19.2146V7.42853C78.6593 5.85726 77.677 5.07163 75.7124 5.07163C73.7478 5.07163 72.7657 5.85726 72.7662 7.42853V19.2146C72.7662 20.7859 73.7483 21.5715 75.7124 21.5715C77.6765 21.5715 78.6588 20.7859 78.6593 19.2146Z" fill="#7928CA"/>
<path d="M93.6838 19.2146V17.5958H95.746V19.2169C95.746 20.5326 95.3434 21.5489 94.538 22.266C93.7326 22.983 92.5248 23.3415 90.9145 23.3415C89.3038 23.3415 88.0858 22.983 87.2607 22.266C86.4356 21.5489 86.023 20.5326 86.023 19.2169V7.42853C86.023 6.11291 86.4257 5.09657 87.2311 4.37952C88.0365 3.66248 89.2446 3.30396 90.8553 3.30396C92.4661 3.30396 93.684 3.66248 94.5091 4.37952C95.3343 5.09657 95.7466 6.11291 95.746 7.42853V10.2281H93.6838V7.42853C93.6838 5.85726 92.7508 5.07163 90.8849 5.07163C89.019 5.07163 88.0858 5.85726 88.0853 7.42853V19.2146C88.0853 20.7859 89.0185 21.5715 90.8849 21.5715C92.7513 21.5715 93.6843 20.7859 93.6838 19.2146Z" fill="#7928CA"/>
<path d="M63.454 33.585V30.0918C63.454 29.2695 63.2038 28.4293 61.3496 28.4293C59.4954 28.4293 59.2452 29.2695 59.2452 30.0918V41.8771C59.2452 42.4523 59.3933 42.8568 59.6981 43.114C60.0332 43.3961 60.5897 43.5395 61.3504 43.5395C62.1111 43.5395 62.6668 43.3961 63.0019 43.114C63.3067 42.8568 63.4548 42.4523 63.4548 41.8771V39.5615H66.9059V41.8771C66.9059 43.393 66.4219 44.594 65.4656 45.4452C64.5303 46.2752 63.1578 46.6922 61.38 46.6922C59.6022 46.6922 58.2219 46.2729 57.2702 45.4452C56.2905 44.594 55.7941 43.3914 55.7941 41.8716V30.0918C55.7941 28.5751 56.2788 27.374 57.2352 26.5237C58.1704 25.6928 59.5422 25.272 61.3208 25.272C63.0994 25.272 64.4789 25.6913 65.4298 26.519C66.4095 27.3709 66.9059 28.5735 66.9059 30.0933V33.5866L63.454 33.585Z" fill="#FF0080"/>
<path d="M80.1222 26.512C79.1519 25.689 77.7365 25.272 75.9135 25.272C74.0905 25.272 72.6797 25.6897 71.7195 26.519C70.7273 27.3701 70.2246 28.5735 70.2246 30.0957V41.8771C70.2246 43.4 70.7336 44.605 71.7367 45.4561C72.7062 46.2791 74.1216 46.6961 75.9454 46.6961C77.7692 46.6961 79.1784 46.2783 80.1394 45.4529C81.1308 44.6018 81.6343 43.3985 81.6343 41.8771V30.0918C81.6374 28.5688 81.1284 27.3647 80.1222 26.512ZM78.1823 30.0918V41.8771C78.1823 42.6986 77.915 43.5395 75.9306 43.5395C73.9463 43.5395 73.6789 42.6986 73.6789 41.8771V30.0918C73.6789 29.2695 73.9463 28.4293 75.9306 28.4293C77.915 28.4293 78.1854 29.2695 78.1854 30.0918H78.1823Z" fill="#FF0080"/>
<path d="M95.0968 26.9858C94.1724 26.1418 92.8404 25.7139 91.1367 25.7139H85.6988V46.2542H91.1367C92.8599 46.2542 94.1974 45.8309 95.1116 44.9978C96.0469 44.1467 96.5145 42.9479 96.5145 41.4351V30.5337C96.5161 29.0403 96.0383 27.8463 95.0968 26.9858ZM89.15 28.8704H91.1367C91.7984 28.8704 92.2949 29.0177 92.6136 29.3077C92.9168 29.5851 93.0649 29.9858 93.0649 30.5329V41.4351C93.0649 42.2987 92.8311 43.0976 91.1367 43.0976H89.15V28.8704Z" fill="#FF0080"/>
<path d="M111.266 37.2756V30.0725C111.266 28.547 110.767 27.3398 109.782 26.4847C108.825 25.6554 107.435 25.2329 105.65 25.2329C103.866 25.2329 102.479 25.6554 101.541 26.4894C100.581 27.3429 100.093 28.5485 100.093 30.071V41.9025C100.093 43.428 100.592 44.6352 101.577 45.4895C102.534 46.3188 103.924 46.7413 105.709 46.7413C107.494 46.7413 108.879 46.3188 109.818 45.4895C110.779 44.6352 111.266 43.4296 111.266 41.9079V39.5781H107.796V41.9025C107.796 42.4798 107.647 42.8859 107.341 43.144C107.003 43.4273 106.444 43.5712 105.679 43.5712C104.914 43.5712 104.356 43.4273 104.019 43.144C103.712 42.8859 103.563 42.4798 103.563 41.9025V37.2756H111.266ZM103.563 34.1071V30.0725C103.563 29.2472 103.815 28.4038 105.679 28.4038C107.544 28.4038 107.795 29.2472 107.795 30.0725V34.1071H103.563Z" fill="#FF0080"/>
</svg>
