<svg width="70" height="75" viewBox="0 0 70 75" fill="none" xmlns="http://www.w3.org/2000/svg">
<path d="M0 74.8609V62.0157H1.94757C2.21614 61.9993 2.48513 62.0403 2.73665 62.1359C2.98818 62.2315 3.21649 62.3795 3.40642 62.5701C3.75286 63.0141 3.9265 63.5687 3.89513 64.1311V72.7601C3.89513 74.1679 3.24594 74.8609 1.91839 74.8609H0ZM0.96284 73.9272H1.94757C2.4071 73.9272 2.95417 73.723 2.95417 72.7601V64.1456C2.97273 63.8433 2.88501 63.544 2.70617 63.2995C2.61613 63.1951 2.50392 63.1121 2.37773 63.0566C2.25154 63.0011 2.11455 62.9744 1.97675 62.9786H0.96284V73.9272Z" fill="#3C5675"/>
<path d="M7.92884 62.0157H6.9587V74.8536H7.92884V62.0157Z" fill="#3C5675"/>
<path d="M12.8379 74.9994C12.5791 75.0012 12.3213 74.9669 12.072 74.8973C11.8533 74.8304 11.6534 74.7129 11.4884 74.5545C11.3144 74.3712 11.1824 74.1522 11.1018 73.9126C10.9947 73.5882 10.9453 73.2475 10.956 72.906V63.9851C10.915 63.4161 11.0866 62.8521 11.4374 62.4023C11.6314 62.2192 11.8611 62.078 12.1121 61.9876C12.3631 61.8973 12.63 61.8596 12.8962 61.8771C13.1631 61.8505 13.4326 61.8839 13.685 61.9747C13.9374 62.0656 14.1663 62.2117 14.3551 62.4023C14.6812 62.8629 14.8384 63.422 14.8 63.9851V66.1734H13.9904V63.9851C14.0098 63.6838 13.9248 63.385 13.7497 63.139C13.6442 63.0317 13.5162 62.9491 13.3749 62.8974C13.2336 62.8457 13.0825 62.826 12.9327 62.8399C12.7884 62.8274 12.6432 62.8478 12.508 62.8996C12.3728 62.9514 12.2511 63.0333 12.1522 63.139C11.9818 63.3869 11.8996 63.6849 11.9188 63.9851V72.906C11.9003 73.2175 11.9992 73.5246 12.196 73.7667C12.2892 73.8662 12.4024 73.9448 12.528 73.9976C12.6537 74.0504 12.7891 74.0761 12.9254 74.0731C13.069 74.0824 13.213 74.0614 13.348 74.0116C13.483 73.9617 13.606 73.8841 13.7091 73.7837C13.8123 73.6834 13.8932 73.5625 13.9466 73.4289C14.0001 73.2953 14.0249 73.1519 14.0195 73.0081V69.8935H12.9838V69.0036H14.9386V74.9046L14.4645 74.0731L14.3478 74.2919C14.2249 74.5277 14.0237 74.7134 13.7788 74.8171C13.4817 74.9442 13.1609 75.0064 12.8379 74.9994V74.9994Z" fill="#3C5675"/>
<path d="M18.914 62.0157H17.9438V74.8536H18.914V62.0157Z" fill="#3C5675"/>
<path d="M23.1155 74.8608V62.9785H21.6201V62.0157H25.559V62.9785H24.0637V74.8608H23.1155Z" fill="#3C5675"/>
<path d="M31.0443 74.8608L30.7525 72.6726H28.5205L28.2214 74.8608H27.2951L29.0967 62.0157H30.3076L32.0071 74.8608H31.0443ZM29.5271 64.9407C29.3812 66.1005 29.2426 67.2384 29.0967 68.3252C28.9509 69.4121 28.7977 70.5135 28.6518 71.6587V71.8119H30.665V71.6587C30.5264 70.5354 30.3805 69.4266 30.2419 68.3252C30.1033 67.2238 29.9647 66.1005 29.8335 64.948L29.5271 64.9407Z" fill="#3C5675"/>
<path d="M34.7571 74.8608V62.0157H35.7199V73.9272H38.1124V74.8608H34.7571Z" fill="#3C5675"/>
<path d="M45.9756 74.4888C45.8224 73.5405 45.662 72.5704 45.4869 71.6149C45.3118 70.6593 45.1514 69.8205 44.969 68.9087C45.2718 68.6875 45.5126 68.3922 45.6684 68.0512C45.8243 67.7102 45.8899 67.3348 45.8589 66.9611V64.5322C45.8909 64.1854 45.8504 63.8357 45.7398 63.5054C45.6293 63.1751 45.4513 62.8715 45.217 62.6138C44.7008 62.1925 44.0435 61.9838 43.3789 62.0302H41.1906V74.8462H42.9631V69.3172H43.284C43.4372 70.1487 43.5758 70.9803 43.7071 71.7899C43.8384 72.5996 43.9843 73.6208 44.1156 74.5763L44.1521 74.8462H46.0413L45.9756 74.4888ZM42.9485 63.759H43.3862C43.6706 63.759 43.8676 63.81 43.9332 63.8976C44.0483 64.1224 44.0964 64.3756 44.0718 64.627V66.9247C44.0903 67.1232 44.0387 67.3219 43.9259 67.4863C43.7731 67.5939 43.5868 67.6431 43.4008 67.6249H42.9558L42.9485 63.759Z" fill="#3C5675"/>
<path d="M51.7016 73.1175V74.8462H47.6971V62.0302H51.6287V63.7881H49.4769V67.4571H50.9868V69.1932H49.4769V73.1175H51.7016Z" fill="#3C5675"/>
<path d="M57.4203 62.694C57.199 62.4647 56.9303 62.2865 56.6329 62.1719C56.3356 62.0572 56.0168 62.0089 55.6988 62.0303H53.4449V74.8462H55.6988C56.7419 74.8462 57.9819 74.4305 57.9819 72.461V64.4374C58.0175 63.8067 57.8173 63.1853 57.4203 62.694V62.694ZM55.232 63.7882H55.7061C55.9396 63.7882 56.0271 63.8611 56.0708 63.9195C56.1751 64.0738 56.2239 64.259 56.2094 64.4447V72.4683C56.2094 73.0737 55.9541 73.1248 55.7061 73.1248H55.232V63.7882Z" fill="#3C5675"/>
<path d="M63.8976 73.1175V74.8462H59.9003V62.0302H63.8246V63.7881H61.6728V67.4571H63.19V69.1932H61.6728V73.1175H63.8976Z" fill="#3C5675"/>
<path d="M69.9956 70.9073V72.6579C70.0315 73.2659 69.8477 73.8665 69.4777 74.3502C68.9955 74.7551 68.3859 74.9771 67.7562 74.9771C67.1266 74.9771 66.517 74.7551 66.0348 74.3502C65.6502 73.8731 65.4577 73.2696 65.495 72.6579V69.7402H67.2238V72.5121C67.2153 72.7273 67.2631 72.9409 67.3623 73.1321C67.3623 73.1685 67.4426 73.278 67.7198 73.278C67.7876 73.2861 67.8565 73.2799 67.9218 73.2598C67.9871 73.2397 68.0475 73.2061 68.0991 73.1612C68.1955 73.0202 68.2394 72.8499 68.2231 72.6798V70.9438C68.2231 70.7687 68.2231 70.6228 68.2231 70.5061C68.2183 70.4244 68.2036 70.3436 68.1793 70.2654C68.1575 70.2059 68.1281 70.1495 68.0918 70.0977C68.048 70.032 67.9897 69.9518 67.924 69.8715C67.8584 69.7913 67.6395 69.5506 67.4936 69.3974L67.0268 68.9452C66.8663 68.792 66.6986 68.6242 66.5308 68.4492C66.3403 68.257 66.1602 68.0549 65.991 67.8437C65.7695 67.6068 65.6224 67.3101 65.568 66.9903C65.5267 66.6833 65.5072 66.3737 65.5096 66.0639V64.2404C65.5096 62.7232 66.2901 61.9208 67.7635 61.9208C68.075 61.8911 68.3891 61.9299 68.684 62.0345C68.9789 62.1391 69.2473 62.3069 69.4704 62.5262C69.833 63.0211 70.0087 63.6284 69.9664 64.2404V66.7715H68.2668V64.3936C68.276 64.187 68.2334 63.9814 68.1428 63.7954C68.1428 63.7954 68.0772 63.6714 67.7927 63.6714C67.5082 63.6714 67.304 63.7663 67.304 64.2404V66.0494C67.2846 66.2092 67.2846 66.3709 67.304 66.5308C67.3443 66.6317 67.401 66.7254 67.4718 66.808C67.7427 67.1518 68.0429 67.4715 68.369 67.7635C68.7194 68.0867 69.0506 68.4302 69.361 68.792C69.4785 68.9265 69.5812 69.0732 69.6673 69.2296C69.7511 69.3813 69.8148 69.5431 69.857 69.7111C69.9064 69.8924 69.9381 70.078 69.9518 70.2654C69.9883 70.4405 69.9956 70.6593 69.9956 70.9073Z" fill="#3C5675"/>
<path d="M31.6497 55.5165H16.6455V35.9169L9.97123 35.8731V0H19.9789V32.6709H23.3124V13.064H31.6497C35.5479 13.064 39.2863 14.6125 42.0427 17.3689C44.7991 20.1253 46.3476 23.8638 46.3476 27.7619C46.3476 31.66 44.7991 35.3985 42.0427 38.1549C39.2863 40.9113 35.5479 42.4598 31.6497 42.4598H26.6459V45.7203H31.6497C41.7595 45.7203 49.9875 37.6967 49.9875 27.7619C49.9875 17.8271 41.7595 9.78158 31.6497 9.78158H23.3124V0H31.6497C47.2813 0 59.9952 12.4513 59.9952 27.7619C59.9952 43.0725 47.2813 55.5165 31.6497 55.5165ZM19.9789 52.256H31.6497C45.4431 52.256 56.6617 41.2635 56.6617 27.7619C56.6617 14.2602 45.4431 3.26782 31.6497 3.26782H26.6459V6.52835H31.6497C43.5977 6.52835 53.3209 16.0546 53.3209 27.7619C53.3209 39.4692 43.5977 48.9881 31.6497 48.9881H23.3124V39.192H31.6497C33.1507 39.192 34.6371 38.8963 36.0238 38.3219C37.4106 37.7475 38.6706 36.9056 39.732 35.8442C40.7934 34.7828 41.6353 33.5228 42.2097 32.136C42.7842 30.7492 43.0798 29.2629 43.0798 27.7619C43.0798 26.2609 42.7842 24.7746 42.2097 23.3878C41.6353 22.001 40.7934 20.741 39.732 19.6796C38.6706 18.6182 37.4106 17.7763 36.0238 17.2019C34.6371 16.6275 33.1507 16.3318 31.6497 16.3318H26.6459V35.9752L19.9789 35.9314V52.256ZM13.312 32.6272H16.6455V3.26782H13.312V32.6272Z" fill="#3C5675"/>
</svg>
